<?xml version="1.0" encoding="UTF-8"?>
<svg id="_图层_2" data-name="图层 2" xmlns="http://www.w3.org/2000/svg" viewBox="0 0 1409.63 263.12">
  <defs>
    <style>
      .cls-1 {
        fill: #08181a;
      }

      .cls-2 {
        fill: #fab61b;
      }

      .cls-3 {
        fill: #fab71b;
      }

      .cls-4 {
        fill: #07181a;
      }

      .cls-5 {
        fill: #fff;
      }

      .cls-6 {
        fill: #f9f9f9;
      }

      .cls-7 {
        fill: #118223;
      }

      .cls-8 {
        fill: #f95b32;
      }
    </style>
  </defs>
  <g>
    <path class="cls-4" d="M133.36,2.14c30.46-.54,45.85,21.31,46.31,49.94.88,10.22-.81,20.79,2.46,30.7,3.39,10.61,11.07,19.06,18,27.5,11.14,13.42,22.9,28.15,26.17,45.75,1.42,8.18,1.08,17.42-2.79,24.92-.54,1.06-.73,1.78-.55,2.99.51,1.45,1.22,2.8,1.86,4.2,2.76,8.48-.64,13.53,7.37,20.77,2.35,2.23,4.32,4.42,5.41,7.52,4.82,12.05-8.13,19.3-17.3,23.62-5.04,2.58-9.91,5.38-14.74,8.33-9.37,5.78-17.98,13.21-29.6,13.01-6.36.3-12.29-2.47-16.8-6.85-1.81-1.83-4.76-5.36-4.76-8.1-10.01-.77-20.33-.1-30.4-.21-3.84.03-7.67.06-11.51.09q-6.88-.24-13.29,1.64c-3.02,6.06-8.68,10.15-15.13,11.91-8.93,2.07-17.45-.89-25.41-4.76-6.96-3.37-13.94-5.63-21.47-7.37-18.25-3.18-21.99-13.66-16.51-30.36.69-2.52.55-5,.53-7.58-.88-13.27,2.72-22.5,17.1-24.48,5.91-1.14,9.41-6.37,12.06-11.38l-.3-.61c-15.89,7.18-33.83-1.41-39.35-17.72-1.85-4.95-2.83-11.53,1.73-15.34-.13-1.37-.74-2.47-1.38-3.67-5.32-10.26-8.76-21.63-8.75-33.24-.06-10.74,2.52-21.36,6.69-31.22.73-1.73,1.36-3.44,2.82-4.66,2.17-.36,4.15.91,5.97,1.91,1.79.95,3.56,1.94,5.34,2.91,6.12,3.43,12.45,6.45,18.59,9.86,8.23,4.3,16.39,8.71,24.63,12.97,3.16,1.61,6.28,3.25,9.35,5.03.99.57,2,1.35,3.15.69,10.84-12.31,8.02-29.63,7.81-44.66-1.67-30.38,14.48-54.38,46.67-54.01Z"/>
    <path class="cls-5" d="M152.58,96.27c18.41,17.61,26.07,50.09,25.48,74.92-11.69.38-17.86,10.91-19.05,21.48-1.1,6.63-1.83,13.31-2.58,19.98-.23,4.83-1.73,8.31-5.59,11.37-13.36,10.41-32.31,10.15-47.58,4.32q-4.83-1.84-5.87-4.14c-.84-2.01-1.86-3.9-2.99-5.76-4-6.4-8.31-12.61-12.63-18.8-5.47-7.76-11.04-16.83-10.47-26.64.93-.62,1.33-.72,2.4-.87,18.92-2.36,37.1-11.55,48.68-26.97,2.24-2.56,3.99-5.33,5.7-8.26q1.74-2.83,2.29-6.05c-1.13-2.95-4.3-3.67-6.81-5.1-1.76-.88-3.49-1.82-5.21-2.77-8.11-4.34-16.26-8.6-24.3-13.06.24-1.33.7-2.44,1.27-3.66,1.29-2.84,2.14-5.78,2.98-8.78.95.45,1.54.89,2.26,1.67,7.49,7.83,19.35,10.88,29.61,7.24,7.16-2.26,14.21-5.81,20.66-9.65q.86-.47,1.77-.47Z"/>
    <path class="cls-8" d="M16.09,75.64c4.5,1.54,8.51,4.23,12.72,6.41,16.76,8.53,33.21,17.65,49.96,26.21,2.98,1.53,5.9,3.12,8.8,4.79,7.37,3.94,14.86,7.65,22.16,11.75,1.84.99,3.69,1.95,5.57,2.87q4.49,2.2,5.14,3.49c-16.03,26.47-45,37.32-74.31,27,5.07-18.31-11.16-23.28-26.09-21.23-6.11-9.4-10.49-20.2-10.38-31.58-.07-10.75-.07-10.13,1.16-15.26,1.19-4.81,2.64-10.21,5.28-14.42Z"/>
    <path class="cls-2" d="M180.24,178.94c3.77,1.96,4.22,6.27,4.41,10.08.26,8.31,8.81,9.89,15.54,8.71,5.36-1.07,10.37-3.57,14.52-7.13q1.1-.91,1.95-.91c4.06,3.44-1.03,13.77,7.51,21.83,3.27,3.18,6.99,5.5,6.73,8.48.24,3.77-1.63,6.6-4.88,8.4-5.74,3.7-12.05,6.41-17.87,10-11.51,5.83-21.46,17.4-35.36,15.76-10.95-2.26-14.57-13.08-11.85-23.01,2.21-11.27,3.41-31.23,5.46-39.53.89-4.62,2.54-8.83,6.5-11.64,2.32-1.37,4.74-2.21,7.34-1.04Z"/>
    <path class="cls-3" d="M61.91,183.59c3.17,1.79,4.57,5.03,6.38,8.02,2.18,3.73,4.38,7.46,6.94,10.94,2.97,4.17,5.73,8.49,8.57,12.75q11.41,17.25,10.12,25.12c-.91,4.12-3.09,7.79-6.56,10.24-8.82,5.8-18.71,1.31-27.19-2.79-8.05-3.89-15.81-5.91-24.55-7.82-7.29-1.28-11.22-5.59-9.54-13.17.7-2.63,1.47-5.23,2.05-7.89.95-3.8.64-7.63.61-11.51q-.15-8.54,2.6-11.82c2.28-2.28,5.41-2.86,8.47-3.52,4.59-.99,7.72-2.67,11.07-6.01,2.87-2.87,7.09-4.45,11.02-2.54Z"/>
    <path class="cls-3" d="M129.77,68.25c5.21,2.86,10.67,4.98,16.28,6.9q8.2,2.84,9.97,6.28c.71,1.91.09,3.64-.53,5.48-1.44,2.64-4.01,3.83-6.59,5.13-14.71,7.41-31.38,17.94-45.15,2.7v-.61c16.64,2.79,27.56.74,42.69-6.52,1.4-.63,2.98-1.09,3.72-2.58-.02-1.04-.12-1.6-.8-2.41-2.6-1.13-6.79,2.03-9.4,2.92-12.47,5.75-26.02,7.58-39.06,2.65-2.56-.99-4.9-2.52-6.33-4.93-2.27-9.32,15.2-15.19,21.98-17.4,4.85-1.4,8.96.03,13.22,2.38Z"/>
    <path class="cls-6" d="M112.85,126.9c1.8.15,3.25,1.2,4.83,1.97q2.07,1.1,2.75,2.28c-15.98,26.39-45.09,37.37-74.31,27,.89-3.18,1.02-6.42.91-9.71,22.12,8.7,49.32,2.84,62.82-17.55q2.21-3.19,3-3.99Z"/>
    <path class="cls-5" d="M16.09,75.64c2.88.92,5.45,2.47,8.15,3.82q.65.43.95,1.34c-4.29,7.74-5.89,14.73-5.55,23.56-.24,12.35,5.28,23.17,12.83,32.56-4.12-.45-8.32-.5-12.44,0-6.11-9.4-10.49-20.2-10.38-31.58-.07-10.75-.07-10.13,1.16-15.26,1.19-4.81,2.64-10.21,5.28-14.42Z"/>
    <path class="cls-5" d="M148.79,40.03c9.27,6.95,9.45,20.14,6.53,30.37-.27.9-.24,1.77-1.17,2.31-1.3.45-2.38-.48-3.58-.9-2.05-.87-4.11-1.73-6.18-2.54,1.99-4.96,2.63-9.75.61-14.86-.84-1.76-1.54-3.07-3.34-3.94-4.17-.93-7.74,2.84-8.49,6.67-.19,2.47-.31,5.17.3,7.58-2.02-.92-4.06-1.76-6.07-2.73-3.38-13.8,6.2-30.18,21.38-21.96Z"/>
    <path class="cls-7" d="M120.13,131.15c1.29.14,1.9.88,2.73,1.82q.3.91-.01,1.57c-2.59,3.92-5.38,7.64-8.48,11.17-16.71,20.14-47.3,25.85-70.98,15.77.49-1.08,1.13-2.01,1.84-2.94q.58-.39,1.52-.36c4.33,1.08,8.54,2.54,13.01,3,6.39.71,12.9.46,19.27-.45,17.24-3.05,32.18-14.8,41.09-29.58Z"/>
    <path class="cls-5" d="M107.52,40.44c7.07,4.51,7.75,14.03,6.24,21.56-1.2.3-2.4.6-3.64.91-.75-5.48-.76-7.07-3.87-11.56-2.69-1.77-5.54.51-6.69,3.01-1.67,3.68-1.74,7.48-.36,11.28.34.74,1.11,1.68.73,2.39-.57.85-1.24,1.34-2.06,1.95-1.03.81-1.71,1.39-2.92.82-1.98-8.67-3.36-19.06,1.52-27,2.6-3.74,6.68-5.29,11.05-3.36Z"/>
    <path class="cls-4" d="M37.93,95.96q.53.32.91.91c.27,3.15.35,6.25-2.05,8.59-1.27,1.17-2.3,1.95-4.08,2.08-2.15-.08-4.4-1.4-4.62-3.71.3-2.65,2.3-4.4,4.24-6.06,1.73-1.38,3.32-2.3,5.59-1.81Z"/>
    <path class="cls-4" d="M49.15,114.47c2.5,2,.03,7.26-1.66,9.2-1.4,1.54-2.34,1.95-4.36,2.11-2.37.03-4.14-1.88-3.81-4.28.87-3.74,5.98-7.63,9.84-7.04Z"/>
    <path class="cls-1" d="M65.7,122.05q1.04.3,1.59.8c2,3.95,1.4,9.85-2.67,12.25-1.41.14-2.32.23-3.45-.68-3.45-3.23-.27-8.34,2.24-11.15.75-.81.92-1.32,2.29-1.21Z"/>
    <path class="cls-1" d="M85.24,123.79c3.68,1.68,4.27,6.91,2.81,10.28-.38.62-.8,1.19-1.19,1.8-1.96,1.22-4.37,0-5.28-1.96-1-2.34.01-4.88.76-7.15.62-1.38,1.27-2.83,2.91-2.96Z"/>
  </g>
  <g>
    <path d="M296.73,231.31V31.81h35.21l75.12,118.76c2.5,3.93,5.31,8.62,8.44,14.06,3.12,5.45,6.43,11.58,9.91,18.41,3.48,6.83,6.92,14.26,10.31,22.29h-3.75c-.8-7.59-1.41-15.11-1.81-22.56-.4-7.45-.69-14.44-.87-20.95-.18-6.52-.27-12-.27-16.47V31.81h30.93v199.5h-35.35l-67.35-106.18c-3.57-5.8-7.08-11.65-10.51-17.54-3.44-5.89-7.23-12.7-11.38-20.42-4.15-7.72-9.22-17.12-15.2-28.18h4.82c.45,9.82.89,18.99,1.34,27.52.45,8.53.78,16.07,1,22.63.22,6.56.33,11.81.33,15.73v106.45h-30.93Z"/>
    <path d="M504.13,231.31V31.81h71.5c15.35,0,28.16,2.86,38.43,8.57,10.26,5.71,17.94,13.44,23.03,23.16,5.09,9.73,7.63,20.75,7.63,33.07s-2.57,23.36-7.7,33.14c-5.13,9.77-12.83,17.5-23.1,23.16-10.27,5.67-23.12,8.5-38.56,8.5h-48.87v-25.84h45.93c9.82,0,17.76-1.69,23.83-5.09,6.07-3.39,10.51-8.03,13.32-13.92s4.22-12.54,4.22-19.95-1.41-14.17-4.22-20.02c-2.81-5.85-7.28-10.42-13.39-13.72-6.12-3.3-14.13-4.95-24.03-4.95h-37.49v173.39h-30.53Z"/>
    <path d="M759.61,234.39c-15.98,0-29.95-3.08-41.91-9.24-11.96-6.16-21.22-14.62-27.78-25.37-6.56-10.76-9.84-23.1-9.84-37.02V31.81h30.53v128.41c0,9.02,1.99,17,5.96,23.97,3.97,6.96,9.62,12.45,16.94,16.47,7.32,4.02,16.02,6.03,26.11,6.03s18.63-2.01,25.91-6.03c7.27-4.02,12.88-9.51,16.8-16.47,3.93-6.96,5.89-14.95,5.89-23.97V31.81h30.66v130.95c0,13.93-3.28,26.27-9.84,37.02-6.56,10.76-15.8,19.21-27.72,25.37s-25.82,9.24-41.71,9.24Z"/>
    <path d="M883.06,231.31V31.81h30.53v173.26h90.38v26.24h-120.91Z"/>
    <path d="M1117.64,234.39c-15.98,0-29.95-3.08-41.91-9.24-11.96-6.16-21.22-14.62-27.78-25.37-6.56-10.76-9.84-23.1-9.84-37.02V31.81h30.53v128.41c0,9.02,1.99,17,5.96,23.97,3.97,6.96,9.62,12.45,16.94,16.47,7.32,4.02,16.02,6.03,26.11,6.03s18.63-2.01,25.91-6.03c7.27-4.02,12.88-9.51,16.8-16.47,3.93-6.96,5.89-14.95,5.89-23.97V31.81h30.66v130.95c0,13.93-3.28,26.27-9.84,37.02-6.56,10.76-15.8,19.21-27.72,25.37s-25.82,9.24-41.71,9.24Z"/>
    <path d="M1324.91,233.99c-18.03,0-33.85-4.15-47.47-12.45-13.61-8.3-24.24-20.11-31.87-35.42-7.63-15.31-11.45-33.45-11.45-54.43s3.86-39.52,11.58-54.83c7.72-15.31,18.32-27.09,31.8-35.35,13.48-8.25,28.83-12.38,46.06-12.38,10.71,0,20.73,1.59,30.06,4.75,9.33,3.17,17.67,7.68,25.04,13.52,7.36,5.85,13.43,12.81,18.21,20.89,4.77,8.08,7.97,16.94,9.57,26.58h-31.33c-1.79-5.8-4.24-11.05-7.36-15.73-3.13-4.69-6.85-8.68-11.18-11.98-4.33-3.3-9.24-5.83-14.73-7.57-5.49-1.74-11.49-2.61-18.01-2.61-11.25,0-21.36,2.86-30.33,8.57-8.97,5.71-16.07,14.13-21.29,25.24-5.22,11.11-7.83,24.7-7.83,40.77s2.61,29.64,7.83,40.7c5.22,11.07,12.38,19.48,21.49,25.24,9.1,5.76,19.55,8.64,31.33,8.64,10.71,0,20.06-2.16,28.05-6.49,7.99-4.33,14.19-10.49,18.61-18.48,4.42-7.99,6.63-17.43,6.63-28.32l7.9,1.34h-56.77v-25.17h78.73v22.9c0,16.78-3.59,31.31-10.78,43.58-7.19,12.27-17.03,21.76-29.52,28.45-12.5,6.69-26.83,10.04-42.98,10.04Z"/>
  </g>
</svg>